<?xml version="1.0" encoding="UTF-8"?><svg xmlns="http://www.w3.org/2000/svg" xmlns:xlink="http://www.w3.org/1999/xlink" height="116.2" preserveAspectRatio="xMidYMid meet" version="1.0" viewBox="0.0 -3.3 146.9 116.2" width="146.9" zoomAndPan="magnify"><g><g><g><g id="change1_1"><path d="M52.42,33.29C48.77,22.78,42.85,9.3,48.77,6.86c2.48-1.02,5.4,2.29,8.62,0.63s2.48-6.91,6.13-6.62 s14.46,8.5,16.29,29.08c1.88,21.17-2.71,32.84-2.71,32.84L52.42,33.29z" fill="#da2353"/></g></g></g><g><g><g id="change2_2"><path d="M79,60.08c9.2-4.88,23.8-11.89,30.37-22.55c6.57-10.66,20.01-28.18,21.32-37.09 c0,0-21.76-3.78-37.24,10.89S76.37,38.55,74.91,51.98S79,60.08,79,60.08z" fill="#ef5570"/></g></g></g><g><g><g id="change2_1"><path d="M73.31,53.88c-4.23-13-25.55-33.08-49.06-31.4C3.8,23.95,0,30.56,0,30.56s14.41,24.77,40.6,29.31 c7.59,1.31,33.15-1.9,33.15-1.9L73.31,53.88z" fill="#ef5570"/></g></g></g><g><g><g id="change3_2"><path d="M68.49,78.27c-25.12,6.04-36.51,34.61-36.51,34.61S15.1,91.66,32.07,70.45 c12.32-15.4,42.6-14.22,42.6-14.22l-6.33,22.92" fill="#f17788"/></g></g></g><g><g><g id="change3_1"><path d="M93.54,65.09c4.65-0.45,22.73-9.22,31.04-11.34c8.31-2.12,22.28-4.77,22.28-4.77s-1.34-13.95-27.27-15.14 c-25.93-1.18-43.78,26.93-43.78,26.93L93.54,65.09z" fill="#f17788"/></g></g></g><g><g><g><g><g id="change4_3"><circle cx="66.58" cy="34.95" fill="#e8db3b" r="1.92"/></g></g></g><g><g><g id="change4_1"><circle cx="70.45" cy="35.18" fill="#e8db3b" r="1.38"/></g></g></g><g><g><g id="change4_9"><circle cx="66.39" cy="32" fill="#e8db3b" r="1.92"/></g></g></g><g><g><g id="change4_4"><circle cx="68.84" cy="32.58" fill="#e8db3b" r="2.22"/></g></g></g></g><g><g><g id="change4_2"><path d="M67.45,33.62c7.32,7.42,8.58,20.56,8.46,30.53c0,0-2.32,0.15-2.32,0.15 C72.97,53.94,72.44,42.71,67.45,33.62L67.45,33.62z" fill="#e8db3b"/></g></g></g><g><g><g id="change4_6"><path d="M84.67,37.91c-7.07,5.59-8.77,13.57-8.88,22.14c0,0-2.32,0.03-2.32,0.03c-0.48-6.53,1.29-13.6,5.95-18.38 c1.51-1.59,3.28-2.89,5.17-3.91L84.67,37.91L84.67,37.91z" fill="#e8db3b"/></g></g></g><g><g><g id="change4_7"><path d="M62.19,47.61c6.46-2.56,13.28,3.92,13.47,10.34c0,0-2.32,0.15-2.32,0.15 C72.95,51.89,68.16,47.62,62.19,47.61L62.19,47.61z" fill="#e8db3b"/></g></g></g><g><g><g id="change4_5"><path d="M57.37,33.54c2.2,0.14,4.26,1.31,6.16,2.33c5.69,3.44,10.71,9.02,11.51,15.86c0,0-2.29,0.35-2.29,0.35 C70.85,43.98,64,37.78,57.37,33.54L57.37,33.54z" fill="#e8db3b"/></g></g></g><g><g><g id="change4_8"><path d="M76.8,28.46c0.93,6.21-0.02,12.82-2.82,18.47c0,0-2.1-1-2.1-1c0.92-2.52,2.31-5.95,3.07-8.48 c0.88-2.93,1.49-5.91,1.69-8.98C76.64,28.47,76.8,28.46,76.8,28.46L76.8,28.46z" fill="#e8db3b"/></g></g></g><g><g><g id="change5_1"><ellipse cx="56.49" cy="33.67" fill="#81322c" rx="1.75" ry="3.87" transform="rotate(-3.624 56.51 33.666)"/></g></g></g><g><g><g id="change5_2"><ellipse cx="85.58" cy="37.78" fill="#81322c" rx="1.75" ry="3.87" transform="rotate(-3.624 85.606 37.776)"/></g></g></g><g><g><g id="change5_4"><ellipse cx="76.72" cy="28.47" fill="#81322c" rx="1.75" ry="3.87" transform="rotate(-3.624 76.743 28.462)"/></g></g></g><g><g><g id="change5_3"><ellipse cx="62.24" cy="48.19" fill="#81322c" rx="1.75" ry="3.87" transform="rotate(-3.624 62.267 48.191)"/></g></g></g></g><g><g><g id="change6_1"><path d="M72.14,60.08c-3.21,5.34-5.84,6.36-5.84,18.05S80.17,92.87,84.4,97.69c4.23,4.82,12.56,7.45,12.56,7.45 s4.23-3.07,5.11-13.29c0.88-10.22,4.72-14.6,0.61-24.09c-4.11-9.49-14.92-10.81-22.22-9.78C73.16,58.99,72.14,60.08,72.14,60.08 z" fill="#f4959c"/></g></g></g></g></svg>