<?xml version="1.0" encoding="UTF-8" standalone="no"?><svg xmlns="http://www.w3.org/2000/svg" fill="#000000" height="281.3pt" version="1.1" viewBox="0 0 495.87 281.3" width="495.87pt">
 <g id="surface1">
  <g id="change1_1"><path d="m54.926 31.207c-2.969-15.113-16.813-24.363-31.864-22.27-15.25 2.122-24.273 17.454-22.269 31.864 0.19919 1.445 1.875 1.945 3.0742 1.746 16.438-2.754 32.875-5.508 49.313-8.266 3.175-0.531 1.824-5.347-1.328-4.82-16.438 2.758-32.875 5.512-49.313 8.266 1.0235 0.582 2.0469 1.164 3.0743 1.746-1.7383-12.5 6.6017-23.321 18.778-25.715 12.379-2.43 23.425 7.125 25.714 18.777 0.622 3.164 5.438 1.82 4.821-1.328" fill="#eba94a"/></g>
  <g id="change1_2"><path d="m81.691 186.86c-8.14-3.65-16.281-7.3-24.421-10.95-2.918-1.3-5.461 3-2.524 4.32 8.141 3.65 16.281 7.29 24.422 10.94 2.918 1.31 5.465-3 2.523-4.31" fill="#eba94a"/></g>
  <g id="change1_3"><path d="m78.391 177c-8.145-3.65-16.286-7.3-24.426-10.95-2.914-1.31-5.461 3-2.524 4.32 8.141 3.65 16.282 7.29 24.422 10.94 2.918 1.31 5.465-3 2.528-4.31" fill="#eba94a"/></g>
  <g id="change1_4"><path d="m72.129 190.96c-8.141-3.64-16.281-7.29-24.422-10.94-2.918-1.31-5.465 3-2.527 4.32 8.144 3.64 16.285 7.29 24.425 10.94 2.918 1.31 5.461-3 2.524-4.32" fill="#eba94a"/></g>
  <g id="change2_1"><path d="m38.57 280.01c6.278-10.89 3.094-23.95-7.293-30.92-10.433-6.99-24.308-2.57-30.922 7.3-0.77297 1.15-0.20266 2.73 0.8989 3.41 11.297 7.04 22.598 14.08 33.894 21.11 2.747 1.71 5.254-2.62 2.524-4.32-11.297-7.03-22.598-14.07-33.895-21.1 0.2972 1.14 0.598 2.28 0.8988 3.42 5.4572-8.14 15.64-10.37 24.078-5.5 8.484 4.89 10.117 16.07 5.496 24.08-1.613 2.8 2.711 5.31 4.32 2.52" fill="#bb3e81"/></g>
  <g id="change2_2"><path d="m46.48 103.14c0 3.67-2.968 6.64-6.632 6.64s-6.633-2.97-6.633-6.64c0-3.66 2.969-6.628 6.633-6.628s6.632 2.968 6.632 6.628" fill="#bb3e81"/></g>
  <g id="change3_1"><path d="m112.56 141.99c3.28 6.19 6.55 12.39 9.83 18.57 1.91 3.61 3.56 7.06 7.96 7.69 7.34 1.06 11.68-6.36 8.99-12.57-2.75-6.36-6.59-12.45-9.84-18.57-1.9-3.61-3.55-7.06-7.95-7.7-7.34-1.05-11.68 6.36-8.99 12.58 1.28 2.96 5.58 0.4 4.32-2.52-1.11-2.55 0.51-4.38 2.86-5.08 3.07-0.93 4.41 3.27 5.45 5.24 3.28 6.19 6.56 12.38 9.83 18.57 1.32 2.48-0.66 4.42-2.86 5.08-3.07 0.92-4.41-3.27-5.45-5.24-3.28-6.19-6.56-12.38-9.83-18.57-1.51-2.85-5.83-0.33-4.32 2.52" fill="#ffcde8"/></g>
  <g id="change3_2"><path d="m140.39 6.6328c0 3.6642-2.98 6.6332-6.64 6.6332s-6.63-2.969-6.63-6.6332c0-3.6601 2.97-6.6328 6.63-6.6328s6.64 2.9727 6.64 6.6328" fill="#ffcde8"/></g>
  <g id="change4_1"><path d="m112.19 44.215c-6.3 6.32-12.596 12.64-18.893 18.961-2.277 2.285 1.258 5.82 3.535 3.535 6.298-6.32 12.598-12.641 18.888-18.957 2.28-2.289-1.25-5.824-3.53-3.539" fill="#eba94a"/></g>
  <g id="change4_2"><path d="m101.8 43.812c-6.3 6.317-12.597 12.637-18.894 18.958-2.277 2.285 1.258 5.82 3.535 3.535 6.297-6.321 12.594-12.641 18.889-18.957 2.28-2.289-1.26-5.825-3.53-3.536" fill="#eba94a"/></g>
  <g id="change4_3"><path d="m112.64 54.613c-6.3 6.321-12.59 12.641-18.894 18.961-2.277 2.285 1.258 5.821 3.535 3.535 6.299-6.32 12.599-12.64 18.899-18.961 2.27-2.285-1.26-5.82-3.54-3.535" fill="#eba94a"/></g>
  <g id="change4_4"><path d="m126.12 236.82c0 3.66-2.97 6.63-6.63 6.63-3.67 0-6.63-2.97-6.63-6.63 0-3.67 2.96-6.64 6.63-6.64 3.66 0 6.63 2.97 6.63 6.64" fill="#eba94a"/></g>
  <g id="change1_5"><path d="m213.58 161.64c6.48 13.41 22.11 19.45 35.88 13.68 13.98-5.84 20.01-22.44 14.28-36.14-0.67-1.59-2.07-2.21-3.67-1.49-15.2 6.85-30.39 13.69-45.59 20.53-2.94 1.32-0.39 5.63 2.52 4.32 15.2-6.84 30.39-13.69 45.59-20.53-1.22-0.5-2.45-1-3.67-1.5 4.74 11.34 0.69 23.67-10.15 29.64-11.52 6.36-25.45 0.19-30.87-11.03-1.4-2.91-5.72-0.37-4.32 2.52" fill="#eba94a"/></g>
  <g id="change1_6"><path d="m190.25 102.62c8.85-1.14 17.7-2.28 26.55-3.421 3.15-0.406 3.19-5.414 0-5-8.85 1.141-17.7 2.281-26.55 3.418-3.15 0.406-3.19 5.413 0 5.003" fill="#eba94a"/></g>
  <g id="change1_7"><path d="m198.22 109.3c8.85-1.14 17.69-2.28 26.54-3.42 3.15-0.4 3.19-5.41 0-5-8.85 1.14-17.69 2.28-26.54 3.42-3.15 0.41-3.19 5.41 0 5" fill="#eba94a"/></g>
  <g id="change1_8"><path d="m196.26 94.121c8.85-1.141 17.7-2.281 26.55-3.422 3.15-0.402 3.19-5.41 0-5-8.85 1.141-17.7 2.281-26.55 3.422-3.15 0.406-3.19 5.41 0 5" fill="#eba94a"/></g>
  <g id="change1_9"><path d="m410.41 31.207c-2.97-15.113-16.82-24.363-31.87-22.27-15.25 2.122-24.27 17.454-22.27 31.864 0.2 1.445 1.88 1.945 3.08 1.746 16.44-2.754 32.87-5.508 49.31-8.266 3.18-0.531 1.82-5.347-1.33-4.82-16.44 2.758-32.87 5.512-49.31 8.266 1.02 0.582 2.05 1.164 3.07 1.746-1.73-12.5 6.61-23.321 18.78-25.715 12.38-2.43 23.43 7.125 25.72 18.777 0.62 3.164 5.43 1.82 4.82-1.328" fill="#eba94a"/></g>
  <g id="change1_10"><path d="m437.18 186.86c-8.15-3.65-16.29-7.3-24.43-10.95-2.91-1.3-5.46 3-2.52 4.32 8.14 3.65 16.28 7.29 24.42 10.94 2.92 1.31 5.46-3 2.53-4.31" fill="#eba94a"/></g>
  <g id="change1_11"><path d="m433.87 177l-24.42-10.95c-2.92-1.31-5.47 3-2.52 4.32 8.13 3.65 16.28 7.29 24.42 10.94 2.91 1.31 5.46-3 2.52-4.31" fill="#eba94a"/></g>
  <g id="change1_12"><path d="m427.61 190.96c-8.14-3.64-16.28-7.29-24.42-10.94-2.92-1.31-5.46 3-2.53 4.32 8.14 3.64 16.29 7.29 24.43 10.94 2.91 1.31 5.46-3 2.52-4.32" fill="#eba94a"/></g>
  <g id="change2_3"><path d="m394.05 280.01c6.28-10.89 3.1-23.95-7.29-30.92-10.44-6.99-24.31-2.57-30.92 7.3-0.78 1.15-0.21 2.73 0.89 3.41 11.3 7.04 22.6 14.08 33.9 21.11 2.75 1.71 5.25-2.62 2.52-4.32-11.29-7.03-22.59-14.07-33.89-21.1l0.9 3.42c5.45-8.14 15.64-10.37 24.07-5.5 8.49 4.89 10.12 16.07 5.5 24.08-1.61 2.8 2.71 5.31 4.32 2.52" fill="#bb3e81"/></g>
  <g id="change2_4"><path d="m255.14 34.902c6.27-10.886 3.09-23.953-7.3-30.918-10.43-6.9918-24.3-2.5699-30.91 7.293-0.78 1.157-0.21 2.735 0.89 3.422 11.3 7.031 22.6 14.067 33.9 21.102 2.74 1.707 5.25-2.617 2.52-4.321-11.3-7.031-22.6-14.066-33.9-21.101 0.3 1.141 0.6 2.281 0.9 3.422 5.46-8.1408 15.64-10.364 24.08-5.5002 8.49 4.8942 10.12 16.07 5.5 24.078-1.61 2.797 2.71 5.316 4.32 2.523" fill="#bb3e81"/></g>
  <g id="change2_5"><path d="m401.96 103.14c0 3.67-2.97 6.64-6.63 6.64-3.67 0-6.63-2.97-6.63-6.64 0-3.66 2.96-6.628 6.63-6.628 3.66 0 6.63 2.968 6.63 6.628" fill="#bb3e81"/></g>
  <g id="change2_6"><path d="m186.27 193.12c0 3.67-2.97 6.64-6.63 6.64s-6.63-2.97-6.63-6.64c0-3.66 2.97-6.63 6.63-6.63s6.63 2.97 6.63 6.63" fill="#bb3e81"/></g>
  <g id="change3_3"><path d="m297 52.688c-4.55 5.328-9.09 10.656-13.64 15.984-2.41 2.82-5.7 6.074-4.51 10.203 1.95 6.801 9.78 9.277 14.89 4.203 4.92-4.875 9.15-10.719 13.65-15.984 2.41-2.817 5.7-6.071 4.51-10.203-1.95-6.797-9.78-9.278-14.9-4.203-2.29 2.273 1.25 5.808 3.54 3.535 2.08-2.067 4.55-1.551 6.12 0.812 1.86 2.781-2.47 6.129-4.05 7.977-4.13 4.843-8.27 9.687-12.4 14.531-1.94 2.269-4.65 1.406-6.12-0.813-1.86-2.781 2.47-6.128 4.05-7.976 4.13-4.844 8.26-9.688 12.4-14.531 2.08-2.438-1.44-5.993-3.54-3.535" fill="#ffcde8"/></g>
  <g id="change3_4"><path d="m306.23 209.47c0 3.66-2.97 6.63-6.63 6.63-3.67 0-6.64-2.97-6.64-6.63s2.97-6.63 6.64-6.63c3.66 0 6.63 2.97 6.63 6.63" fill="#ffcde8"/></g>
  <g id="change3_5"><path d="m495.87 6.6328c0 3.6642-2.97 6.6332-6.64 6.6332-3.66 0-6.63-2.969-6.63-6.6332 0-3.6601 2.97-6.6328 6.63-6.6328 3.67 0 6.64 2.9727 6.64 6.6328" fill="#ffcde8"/></g>
  <g id="change3_6"><path d="m468.04 141.99c3.28 6.19 6.56 12.39 9.84 18.57 1.91 3.61 3.55 7.06 7.95 7.69 7.34 1.06 11.68-6.36 8.99-12.57-2.75-6.36-6.59-12.45-9.84-18.57-1.9-3.61-3.55-7.06-7.95-7.7-7.34-1.05-11.68 6.36-8.99 12.58 1.28 2.96 5.58 0.4 4.32-2.52-1.11-2.55 0.51-4.38 2.86-5.08 3.08-0.93 4.41 3.27 5.45 5.24l9.84 18.57c1.31 2.48-0.67 4.42-2.87 5.08-3.07 0.92-4.41-3.27-5.45-5.24-3.28-6.19-6.55-12.38-9.83-18.57-1.51-2.85-5.83-0.33-4.32 2.52" fill="#ffcde8"/></g>
  <g id="change4_5"><path d="m249.13 263.35c-3.66-8.13-7.33-16.26-10.99-24.4-1.32-2.94-5.63-0.39-4.32 2.52 3.67 8.14 7.33 16.27 10.99 24.41 1.33 2.93 5.63 0.39 4.32-2.53" fill="#eba94a"/></g>
  <g id="change4_6"><path d="m253.21 253.79c-3.66-8.14-7.32-16.27-10.99-24.41-1.32-2.93-5.63-0.39-4.32 2.53 3.67 8.13 7.33 16.27 10.99 24.4 1.32 2.94 5.63 0.39 4.32-2.52" fill="#eba94a"/></g>
  <g id="change4_7"><path d="m239.25 260.07c-3.66-8.13-7.32-16.27-10.98-24.4-1.33-2.94-5.63-0.39-4.32 2.52 3.66 8.13 7.32 16.27 10.99 24.41 1.32 2.93 5.63 0.39 4.31-2.53" fill="#eba94a"/></g>
  <g id="change4_8"><path d="m186.27 38.945c0 3.66-2.97 6.633-6.63 6.633s-6.63-2.973-6.63-6.633c0-3.664 2.97-6.633 6.63-6.633s6.63 2.969 6.63 6.633" fill="#eba94a"/></g>
  <g id="change4_9"><path d="m329.5 133.84c0 3.66-2.97 6.63-6.64 6.63-3.66 0-6.63-2.97-6.63-6.63 0-3.67 2.97-6.64 6.63-6.64 3.67 0 6.64 2.97 6.64 6.64" fill="#eba94a"/></g>
  <g id="change4_10"><path d="m467.67 44.215c-6.3 6.32-12.6 12.64-18.89 18.961-2.28 2.285 1.26 5.82 3.53 3.535 6.3-6.32 12.6-12.641 18.89-18.957 2.28-2.289-1.25-5.824-3.53-3.539" fill="#eba94a"/></g>
  <g id="change4_11"><path d="m457.28 43.812c-6.3 6.317-12.6 12.637-18.89 18.958-2.28 2.285 1.25 5.82 3.53 3.535 6.3-6.321 12.6-12.641 18.89-18.957 2.28-2.289-1.25-5.825-3.53-3.536" fill="#eba94a"/></g>
  <g id="change4_12"><path d="m468.12 54.613c-6.3 6.321-12.59 12.641-18.89 18.961-2.28 2.285 1.25 5.821 3.54 3.535 6.29-6.32 12.59-12.64 18.89-18.961 2.28-2.285-1.26-5.82-3.54-3.535" fill="#eba94a"/></g>
  <g id="change4_13"><path d="m481.6 236.82c0 3.66-2.97 6.63-6.63 6.63-3.67 0-6.63-2.97-6.63-6.63 0-3.67 2.96-6.64 6.63-6.64 3.66 0 6.63 2.97 6.63 6.64" fill="#eba94a"/></g>
 </g>
</svg>