<?xml version="1.0" encoding="UTF-8" standalone="no"?><svg xmlns="http://www.w3.org/2000/svg" xmlns:xlink="http://www.w3.org/1999/xlink" fill="#000000" height="147.2" preserveAspectRatio="xMidYMid meet" version="1" viewBox="-7.3 -1.4 112.9 147.2" width="112.9" zoomAndPan="magnify"><g><g><g><g id="change1_1"><path d="M82.22,7.77c2.21,39.25-27.69,97.06-54.65,124.95c-4.62,4.75-9.62,9.17-15.16,12.87 c-0.28,0.19-0.67,0.11-0.85-0.17c-0.19-0.28-0.11-0.67,0.17-0.86c5.41-3.67,10.31-8.07,14.84-12.8 C52.89,104.14,82.18,46.61,79.77,7.99C79.6,6.44,82.03,6.06,82.22,7.77L82.22,7.77z" fill="#ffdfcd"/></g></g></g><g><g><g id="change1_2"><path d="M80.61,22.68c3.48-7.55,8.49-21.74,2.62-22.62C73.31-1.42,80.57,23,80.57,23" fill="#ffdfcd"/></g></g></g><g><g><g id="change1_12"><path d="M78.04,36.76c-0.7,2.27,18.56-8,19.35-13.32S81.81,24.54,78.04,36.76z" fill="#ffdfcd"/></g></g></g><g><g><g id="change1_11"><path d="M78.43,34.11c-2.02-5.02-10.58-22.04-15.99-16.86c-3.98,3.81,10.33,14.62,15.81,18.03 C79.83,36.25,78.43,34.11,78.43,34.11z" fill="#ffdfcd"/></g></g></g><g><g><g id="change1_8"><path d="M69.37,60.25c-2.78-8.1-14.67-35.54-22.63-26.96c-5.85,6.31,14.52,23.49,22.35,28.87 C71.33,63.7,69.37,60.25,69.37,60.25z" fill="#ffdfcd"/></g></g></g><g><g><g id="change1_4"><path d="M71.66,62.82c7.76-0.76,33.94-8.23,30.46-15.72c-3.37-7.27-24.74,8.58-31.97,14.98 C68.09,63.91,71.66,62.82,71.66,62.82z" fill="#ffdfcd"/></g></g></g><g><g><g id="change1_7"><path d="M59.1,86.15c9.02,1.47,43.96-0.49,42.28-10.01c-1.62-9.24-33.89,1.26-41.45,8.22 C57.56,86.55,59.1,86.15,59.1,86.15z" fill="#ffdfcd"/></g></g></g><g><g><g id="change1_3"><path d="M59.84,83.55c-1.77-8.96-22.44-39.37-29-35.07C23,53.62,45.03,78.65,57.87,83.39 C60.9,84.51,59.84,83.55,59.84,83.55z" fill="#ffdfcd"/></g></g></g><g><g><g id="change1_5"><path d="M44.47,110.57C42.7,101.6,23.93,65.45,12.93,74.2c-9.25,7.36,18.05,32.55,30.9,37.3L44.47,110.57z" fill="#ffdfcd"/></g></g></g><g><g><g id="change1_9"><path d="M22.06,137.23c0.29-9.13-9.41-46.44-18.66-42.59C-7.34,99.1,9.77,130.48,21.22,138L22.06,137.23z" fill="#ffdfcd"/></g></g></g><g><g><g id="change1_10"><path d="M44.72,110.68c9.02,1.47,44.88-0.55,43.21-10.07c-1.62-9.24-34.85-0.47-42.57,8.97 C43.3,112.08,44.72,110.68,44.72,110.68z" fill="#ffdfcd"/></g></g></g><g><g><g id="change1_6"><path d="M20.84,138.66c8.11,4.2,55.01,6.73,53.54-2.83c-2.12-13.84-40.2-7.19-52.59,1.98 C19.19,139.73,20.84,138.66,20.84,138.66z" fill="#ffdfcd"/></g></g></g></g></svg>